<svg width="456" height="456" viewBox="0 0 456 456" fill="none" xmlns="http://www.w3.org/2000/svg">
<circle cx="228" cy="228" r="223" fill="#80CAA8" stroke="black" stroke-width="10"/>
<rect x="224" y="6" width="8" height="443" fill="black" fill-opacity="0.2"/>
<rect x="143" y="18" width="8" height="421" fill="black" fill-opacity="0.2"/>
<rect x="305" y="18" width="8" height="421" fill="black" fill-opacity="0.2"/>
<rect x="60" y="75" width="8" height="306" fill="black" fill-opacity="0.2"/>
<rect x="388" y="76" width="8" height="306" fill="black" fill-opacity="0.2"/>
<rect x="6.01013" y="233.477" width="8" height="443" transform="rotate(-90.0727 6.01013 233.477)" fill="black" fill-opacity="0.2"/>
<rect x="18.1129" y="314.462" width="8" height="421" transform="rotate(-90.0727 18.1129 314.462)" fill="black" fill-opacity="0.2"/>
<rect x="17.9073" y="152.462" width="8" height="421" transform="rotate(-90.0727 17.9073 152.462)" fill="black" fill-opacity="0.2"/>
<rect x="75.2183" y="397.389" width="8" height="306" transform="rotate(-90.0727 75.2183 397.389)" fill="black" fill-opacity="0.2"/>
<rect x="75.802" y="69.3883" width="8" height="306" transform="rotate(-90.0727 75.802 69.3883)" fill="black" fill-opacity="0.2"/>
<circle cx="79" cy="304" r="32" fill="white" stroke="black" stroke-width="10"/>
<circle cx="172" cy="207" r="32" fill="white" stroke="black" stroke-width="10"/>
<circle cx="262" cy="304" r="32" fill="white" stroke="black" stroke-width="10"/>
<circle cx="378" cy="153" r="32" fill="white" stroke="black" stroke-width="10"/>
<rect x="103.237" y="288.298" width="12.7938" height="76.7999" transform="rotate(-136.216 103.237 288.298)" fill="black"/>
<rect x="280.716" y="282.646" width="12.7938" height="132.73" transform="rotate(-139.411 280.716 282.646)" fill="black"/>
<rect x="186" y="230.852" width="12.7938" height="76.7999" transform="rotate(-43.78 186 230.852)" fill="black"/>
</svg>
